<?xml version="1.0" encoding="utf-8"?>
<!-- Generator: Adobe Illustrator 12.0.1, SVG Export Plug-In . SVG Version: 6.00 Build 51448)  -->
<!DOCTYPE svg PUBLIC "-//W3C//DTD SVG 1.1//EN" "http://www.w3.org/Graphics/SVG/1.1/DTD/svg11.dtd" [
	<!ENTITY ns_svg "http://www.w3.org/2000/svg">
	<!ENTITY ns_xlink "http://www.w3.org/1999/xlink">
]>
<svg  version="1.1" xmlns="&ns_svg;" xmlns:xlink="&ns_xlink;" width="160.156" height="177.328" viewBox="0 0 160.156 177.328"
	 overflow="visible" enable-background="new 0 0 160.156 177.328" xml:space="preserve">
<g id="Layer_2">
	<path d="M0,177.328c0,0,27.905-25.27,37.051-32.711c9.146-7.44,29.455-23.408,33.176-25.734c3.72-2.325,5.71-1.275,6.356,0.311
		c0.772,1.896,1.186,6.057,0.929,9.302c-0.359,4.554-3.065,13.642-3.065,13.642s0.357-11.085-3.353-12.885
		c-4.079-1.979-18.9,7.898-26.758,13.351C31.644,151.41,0,177.328,0,177.328z"/>
	<path d="M109.484,0c0,0-31.87,101.084-33.081,105.185c-1.159,3.925-2.485,8.934,0,10.622c2.53,1.72,6.168-1.135,8.802-3.338
		c21.946-18.355,74.951-66.61,74.951-66.61s-38.973,30.993-45.145,35.743c-5.334,4.105-25.787,21.896-30.274,18.691
		c-2.445-1.746,8.024-35.698,11.394-48.219C100.334,36.447,109.484,0,109.484,0z"/>
</g>
<g id="Layer_3">
	<path d="M75.924,92.441l8.333-19.71l1.923,5.127l5.288-5.288c0,0-0.062,8.31,3.044,8.813c3.014,0.489,7.995-1.914,9.679-4.194
		c2.466-3.339,3.9-7.933,2.02-11.35c-2.247-4.08-12.668-4.087-19.39-0.641c-11.09,5.686-19.799,15.415-24.734,22.597
		c-8.974,13.06-11.575,27.718-11.641,35.732c-0.08,9.774,5.249,17.937,13.46,20.03c12.259,3.124,25.879,2.243,36.856,0
		c33.858-6.92,49.033-27.401,49.033-27.401s-11.056,13.941-22.914,20.351s-26.269,13.667-48.713,13.78
		c-15.864,0.08-26.338-4.141-29.965-12.018c-5.127-11.137-3.525-24.837,0.962-37.496c4.486-12.66,15.543-25.8,22.594-31.408
		c8.148-6.481,18.521-13.062,29.674-12.875c9.614,0.16,12.257,5.754,12.438,9.438c0.438,8.999-2.049,12.438-7.979,17.539
		c-4.594,3.95-11.203,6.278-14.662,4.967c-5.288-2.003-6.971-8.493-6.971-8.493L75.924,92.441z"/>
</g>
</svg>
